<?xml version="1.0" encoding="UTF-8"?>
<svg xmlns="http://www.w3.org/2000/svg" xmlns:xlink="http://www.w3.org/1999/xlink" width="60px" height="60px" viewBox="0 0 60 60" version="1.1">
<g id="surface1">
<path style=" stroke:none;fill-rule:nonzero;fill:rgb(20%,18.823529%,20%);fill-opacity:1;" d="M 42.046875 23.566406 C 31.933594 23.566406 31.933594 33.628906 31.933594 33.675781 C 31.933594 33.675781 31.257812 43.742188 42.046875 43.742188 C 42.046875 43.742188 50.175781 44.226562 51 37.789062 C 51.046875 37.210938 50.613281 36.726562 50.082031 36.726562 L 47.273438 36.726562 C 46.886719 36.726562 46.5 36.96875 46.355469 37.402344 C 46.113281 38.226562 45.242188 39.582031 42.242188 39.582031 C 42.242188 39.582031 38.324219 39.824219 37.695312 36.097656 C 37.597656 35.515625 38.03125 35.03125 38.613281 35.03125 L 50.324219 35.03125 C 50.804688 35.03125 51.242188 34.644531 51.242188 34.113281 C 51.339844 31.402344 50.855469 23.566406 42.046875 23.566406 Z M 38.175781 31.453125 C 37.789062 31.453125 37.546875 31.113281 37.644531 30.726562 C 38.03125 29.566406 39.144531 27.386719 42.097656 27.386719 C 45.144531 27.386719 45.871094 29.660156 46.066406 30.824219 C 46.113281 31.160156 45.871094 31.453125 45.53125 31.453125 Z M 26.082031 29.128906 C 25.742188 29.03125 25.695312 28.546875 26.03125 28.402344 C 27.144531 27.824219 28.5 26.566406 28.5 23.855469 C 28.5 19.160156 25.210938 16.839844 21.046875 16.839844 L 7.984375 16.839844 C 7.597656 16.839844 7.304688 17.128906 7.304688 17.515625 L 7.304688 42.484375 C 7.304688 42.871094 7.597656 43.160156 7.984375 43.160156 L 21 43.160156 C 21 43.160156 29.371094 43.402344 29.371094 35.371094 C 29.371094 35.417969 29.660156 30.289062 26.082031 29.128906 Z M 13.304688 22.015625 C 13.304688 21.726562 13.546875 21.53125 13.789062 21.53125 L 20.953125 21.53125 C 20.953125 21.53125 22.789062 21.53125 22.789062 24.289062 C 22.789062 27.046875 21.675781 27.433594 20.46875 27.433594 L 13.839844 27.433594 C 13.546875 27.433594 13.355469 27.195312 13.355469 26.953125 L 13.355469 22.015625 Z M 20.613281 38.515625 L 13.839844 38.515625 C 13.546875 38.515625 13.355469 38.273438 13.355469 38.03125 L 13.355469 31.984375 C 13.355469 31.695312 13.597656 31.5 13.839844 31.5 L 21 31.5 C 21 31.5 23.804688 31.453125 23.757812 35.128906 C 23.757812 38.175781 21.675781 38.46875 20.613281 38.515625 Z M 36.339844 17.902344 L 36.339844 20.175781 C 36.339844 20.46875 36.582031 20.660156 36.824219 20.660156 L 46.695312 20.660156 C 46.984375 20.660156 47.175781 20.417969 47.175781 20.175781 L 47.175781 17.902344 C 47.175781 17.613281 46.933594 17.417969 46.695312 17.417969 L 36.871094 17.417969 C 36.582031 17.371094 36.339844 17.613281 36.339844 17.902344 Z M 36.339844 17.902344 "/>
</g>
</svg>
