<?xml version="1.0" encoding="UTF-8"?>
<svg xmlns="http://www.w3.org/2000/svg" xmlns:xlink="http://www.w3.org/1999/xlink" width="60px" height="60px" viewBox="0 0 60 60" version="1.1">
<g id="surface1">
<path style=" stroke:none;fill-rule:nonzero;fill:rgb(0%,0%,0%);fill-opacity:1;" d="M 6.015625 21.78125 L 16.5625 21.78125 L 16.5625 53.523438 L 6.015625 53.523438 Z M 11.359375 6.476562 C 7.75 6.476562 5.390625 8.847656 5.390625 11.957031 C 5.390625 15.003906 7.679688 17.445312 11.222656 17.445312 L 11.289062 17.445312 C 14.96875 17.445312 17.257812 15.003906 17.257812 11.957031 C 17.191406 8.847656 14.96875 6.476562 11.359375 6.476562 Z M 42.460938 21.035156 C 36.863281 21.035156 34.355469 24.113281 32.953125 26.273438 L 32.953125 21.78125 L 22.402344 21.78125 C 22.542969 24.757812 22.402344 53.523438 22.402344 53.523438 L 32.953125 53.523438 L 32.953125 35.792969 C 32.953125 34.84375 33.023438 33.898438 33.300781 33.21875 C 34.066406 31.324219 35.800781 29.359375 38.714844 29.359375 C 42.535156 29.359375 44.058594 32.273438 44.058594 36.539062 L 44.058594 53.523438 L 54.609375 53.523438 L 54.609375 35.320312 C 54.609375 25.570312 49.40625 21.035156 42.460938 21.035156 Z M 42.460938 21.035156 "/>
</g>
</svg>
