<?xml version="1.0" encoding="UTF-8"?>
<svg xmlns="http://www.w3.org/2000/svg" xmlns:xlink="http://www.w3.org/1999/xlink" width="60px" height="60px" viewBox="0 0 60 60" version="1.1">
<g id="surface1">
<path style=" stroke:none;fill-rule:nonzero;fill:rgb(20%,18.823529%,20%);fill-opacity:1;" d="M 32.804688 40.546875 C 30.144531 40.355469 29.03125 39.046875 26.953125 37.789062 C 26.03125 42.628906 24.917969 47.324219 22.355469 50.515625 C 21.582031 51.433594 20.082031 51 20.03125 49.789062 C 19.644531 42.046875 22.304688 35.902344 23.613281 29.46875 C 21.144531 25.257812 23.902344 16.839844 29.175781 18.917969 C 35.660156 21.484375 23.566406 34.5 31.695312 36.144531 C 40.160156 37.789062 43.644531 21.433594 38.371094 16.113281 C 30.773438 8.417969 16.304688 15.917969 18.097656 26.953125 C 18.433594 29.03125 20.175781 30 19.984375 32.082031 C 19.839844 33.386719 18.53125 34.113281 17.371094 33.582031 C 14.03125 32.03125 12.96875 28.597656 13.113281 24.195312 C 13.402344 15.871094 20.613281 10.015625 27.824219 9.195312 C 36.96875 8.175781 45.53125 12.53125 46.695312 21.144531 C 48.046875 30.773438 42.582031 41.273438 32.804688 40.546875 Z M 32.804688 40.546875 "/>
</g>
</svg>
