<?xml version="1.0" encoding="UTF-8"?>
<svg xmlns="http://www.w3.org/2000/svg" xmlns:xlink="http://www.w3.org/1999/xlink" width="60px" height="60px" viewBox="0 0 60 60" version="1.1">
<g id="surface1">
<path style=" stroke:none;fill-rule:nonzero;fill:rgb(0%,0%,0%);fill-opacity:1;" d="M 58.746094 15.558594 C 58.054688 12.976562 56.023438 10.945312 53.441406 10.253906 C 48.761719 9 30 9 30 9 C 30 9 11.238281 9 6.558594 10.253906 C 3.976562 10.945312 1.945312 12.976562 1.253906 15.558594 C 0 20.238281 0 30 0 30 C 0 30 0 39.761719 1.253906 44.441406 C 1.945312 47.023438 3.976562 49.058594 6.558594 49.746094 C 11.238281 51 30 51 30 51 C 30 51 48.761719 51 53.441406 49.746094 C 56.023438 49.058594 58.054688 47.023438 58.746094 44.441406 C 60 39.761719 60 30 60 30 C 60 30 60 20.238281 58.746094 15.558594 Z M 24 39 L 24 21 L 39.585938 30 Z M 24 39 "/>
</g>
</svg>
