<svg width="120" height="120" viewBox="0 0 120 120" fill="none" xmlns="http://www.w3.org/2000/svg">
<path fill-rule="evenodd" clip-rule="evenodd" d="M60 120C93.1371 120 120 93.1371 120 60C120 26.8629 93.1371 0 60 0C26.8629 0 0 26.8629 0 60C0 93.1371 26.8629 120 60 120Z" fill="white"/>
<mask id="mask0_1436_106652" style="mask-type:alpha" maskUnits="userSpaceOnUse" x="0" y="0" width="120" height="120">
<path fill-rule="evenodd" clip-rule="evenodd" d="M60 120C93.1371 120 120 93.1371 120 60C120 26.8629 93.1371 0 60 0C26.8629 0 0 26.8629 0 60C0 93.1371 26.8629 120 60 120Z" fill="white"/>
</mask>
<g mask="url(#mask0_1436_106652)">
<mask id="mask1_1436_106652" style="mask-type:alpha" maskUnits="userSpaceOnUse" x="17" y="22" width="85" height="69">
<path fill-rule="evenodd" clip-rule="evenodd" d="M17 22.5977H101.726V90.7633H17V22.5977Z" fill="white"/>
</mask>
<g mask="url(#mask1_1436_106652)">
<path fill-rule="evenodd" clip-rule="evenodd" d="M58.7596 90.7633C67.2723 90.7633 82.067 87.5204 88.9579 84.2775C95.8488 81.0346 101.726 76.5763 101.726 72.1174C101.726 67.6584 95.6463 66.645 95.8488 64.6181C96.0514 62.5918 99.6994 61.5784 99.4969 56.9169C99.2943 52.2554 90.3765 54.4849 89.7688 51.8503C89.1605 49.2151 94.6328 46.1754 93.6194 40.9056C92.6059 35.6364 80.6484 39.6896 77.8106 36.0416C74.9735 32.3935 79.6349 26.516 76.1895 24.084C72.744 21.6514 65.0428 22.2597 59.773 25.5026C54.5033 28.7455 52.0718 33.6095 47.6129 34.4204C43.154 35.2307 37.4791 29.7589 33.0202 32.5961C28.5613 35.4333 29.3722 40.9056 29.5747 43.9459C29.7773 46.9857 31.1965 51.8503 29.3722 54.4849C27.5478 57.1195 25.3322 58.3355 22.6976 59.5515C20.063 60.7675 16.8063 64.0104 17.0089 68.4693C17.2114 72.9282 21.6704 79.2108 34.0336 84.2775C46.3969 89.3447 51.8687 90.7633 58.7596 90.7633Z" fill="#0297B8"/>
</g>
<mask id="mask2_1436_106652" style="mask-type:alpha" maskUnits="userSpaceOnUse" x="17" y="63" width="73" height="28">
<path fill-rule="evenodd" clip-rule="evenodd" d="M17 63.7585H89.994V90.7635H17V63.7585Z" fill="white"/>
</mask>
<g mask="url(#mask2_1436_106652)">
<path fill-rule="evenodd" clip-rule="evenodd" d="M81.2703 72.3201C76.0006 70.2933 74.9871 66.6452 64.2456 67.6587C53.5041 68.6721 39.7222 69.6855 39.7222 69.6855C39.5647 69.4914 39.4072 69.3105 39.2497 69.1362C39.5467 67.1778 39.0893 65.4406 37.8282 64.4831C35.5566 62.7592 31.5473 64.2168 28.8737 67.7392C27.7352 69.2389 27.0265 70.8703 26.759 72.3833C23.9928 72.3556 18.1009 71.4576 17.8442 64.3851C17.2756 65.5867 16.9402 66.956 17.0087 68.4689C17.2119 72.9278 21.6708 79.2111 34.0335 84.2777C46.3967 89.3443 51.8685 90.7635 58.7594 90.7635C67.2721 90.7635 82.0668 87.5206 88.9583 84.2777C89.3064 84.1136 89.6514 83.9459 89.994 83.7758C88.6295 83.6477 87.2891 83.2047 86.1344 82.2508C81.4729 78.4002 86.5401 74.347 81.2703 72.3201Z" fill="#00547A"/>
</g>
<path fill-rule="evenodd" clip-rule="evenodd" d="M34.1049 58.7677C36.8062 54.9171 36.2995 51.7572 33.7544 48.6075C30.9942 45.1914 29.3538 39.4558 32.2216 33.1792C28.6656 36.1324 29.3851 41.1022 29.5744 43.946C29.7776 46.9857 31.1962 51.8503 29.3719 54.4849C27.5481 57.1195 25.3325 58.3355 22.6979 59.5515C22.4136 59.6826 22.1221 59.8419 21.8293 60.0192C25.4551 62.8233 32.0034 61.763 34.1049 58.7677Z" fill="#00547A"/>
<path fill-rule="evenodd" clip-rule="evenodd" d="M73.2487 39.6974C74.7262 39.1829 77.511 38.2596 80.5736 37.4656C79.3816 37.2197 78.3988 36.7971 77.811 36.0416C75.6386 33.2483 77.8585 29.15 77.4738 26.29C73.6977 28.588 70.6748 31.3993 70.3123 35.0281C70.1266 36.8825 70.4927 38.1003 70.9441 38.8763C71.4057 39.6698 72.3819 39.9992 73.2487 39.6974Z" fill="#00547A"/>
<path fill-rule="evenodd" clip-rule="evenodd" d="M84.5192 54.0619C86.32 53.5143 88.6565 53.0004 91.118 52.9811C90.4033 52.7479 89.8977 52.4089 89.7685 51.8499C89.3658 50.1031 91.6343 48.1772 92.914 45.542C91.707 46.0667 90.4441 46.4364 88.9727 46.8283C86.3266 47.5334 83.7648 48.9081 82.2891 50.8737C81.0959 52.463 82.6179 54.6395 84.5192 54.0619Z" fill="#00547A"/>
<path fill-rule="evenodd" clip-rule="evenodd" d="M95.8496 64.6197C96.0498 62.6133 99.6221 61.5944 99.4971 57.0508C98.3117 57.0772 96.4519 57.5575 95.1638 60.0058C93.3437 63.4644 89.7251 66.1056 85.9232 66.0203C85.2115 66.0047 84.6603 66.6611 84.8268 67.3529C85.2319 69.0342 86.4473 71.5582 90.0972 71.5582C93.6424 71.5582 95.9115 69.0913 97.841 66.8582C96.699 66.0834 95.7685 65.433 95.8496 64.6197Z" fill="#00547A"/>
<path fill-rule="evenodd" clip-rule="evenodd" d="M58.6378 84.6907C53.3374 84.6907 48.9626 88.8178 48.632 94.108C48.2828 99.7012 47.666 106.154 46.6165 108.537C45.4131 111.27 41.0198 112.284 37.715 112.659C35.5137 112.908 34.0904 115.101 34.775 117.209C36.5771 122.758 41.6984 131.664 56.011 131.664C69.2351 131.664 76.2853 126.811 79.6646 123.279C81.1944 121.68 80.8578 119.091 78.9854 117.911C74.9899 115.393 68.8275 110.014 68.7374 100.748C68.7145 98.3836 68.6953 96.3567 68.6803 94.6213C68.6304 89.1213 64.157 84.6907 58.6558 84.6907H58.6378Z" fill="#F7D4AD"/>
<path fill-rule="evenodd" clip-rule="evenodd" d="M67.6654 90.3397C66.0388 86.9965 62.6192 84.6907 58.6562 84.6907H58.6376C58.4975 84.6907 58.3611 84.7051 58.2222 84.7111C57.1463 84.9149 56.0198 85.1565 54.8513 85.4336C51.3866 86.8498 48.8788 90.1534 48.6318 94.108C48.2825 99.7012 47.6664 106.155 46.6163 108.537C45.4129 111.27 41.0201 112.284 37.7153 112.659C35.5135 112.908 34.0907 115.101 34.7748 117.209C34.874 117.514 34.9852 117.83 35.1048 118.154C40.7382 117.069 46.4204 114.977 51.9468 111.468C61.9724 105.102 66.0346 96.0658 67.6654 90.3397Z" fill="#E99462"/>
<path fill-rule="evenodd" clip-rule="evenodd" d="M62.416 47.0169C72.2234 46.8937 80.1284 55.5639 79.9727 66.2729L79.9619 66.9732C80.0502 67.5274 79.4786 80.5128 76.3403 85.5127C72.2186 92.0797 69.4217 96.9022 61.1507 100.247C60.3284 100.579 59.4015 100.58 58.575 100.258C50.4025 97.0771 46.9805 92.8809 43.4557 85.9257C40.8169 80.7214 39.7554 68.0335 39.8437 67.4775L39.8341 66.7773C39.6844 56.0718 47.5942 47.2033 57.4017 47.08L62.416 47.0169Z" fill="#F7D4AD"/>
<path fill-rule="evenodd" clip-rule="evenodd" d="M46.4281 67.7695C49.1186 58.6696 48.5638 53.1185 47.8226 50.3083C42.94 53.8458 39.7385 59.9349 39.8341 66.7789L39.8443 67.4792C39.7554 68.0358 40.8175 80.723 43.4557 85.9279C46.8194 92.5646 50.0996 96.6875 57.4942 99.8156C57.502 99.8108 57.5171 99.8023 57.5171 99.8023C48.8012 92.2682 43.612 77.2944 46.4281 67.7695Z" fill="#E99462"/>
<path fill-rule="evenodd" clip-rule="evenodd" d="M41.7708 73.5276C42.3502 76.9532 41.8038 79.3702 39.7138 79.9743C37.2788 80.6782 35.2928 77.4972 34.7206 74.8235C33.6795 69.9565 35.6078 67.0165 37.601 67.2161C41.356 67.5918 41.3152 70.8317 41.7708 73.5276Z" fill="#F7D4AD"/>
<path fill-rule="evenodd" clip-rule="evenodd" d="M78.036 73.5276C77.4566 76.9532 78.0036 79.3702 80.093 79.9743C82.528 80.6782 84.514 77.4972 85.0863 74.8235C86.1273 69.9565 84.199 67.0165 82.2058 67.2161C78.4508 67.5918 78.4923 70.8317 78.036 73.5276Z" fill="#F7D4AD"/>
<path fill-rule="evenodd" clip-rule="evenodd" d="M41.7708 73.5276C41.3146 70.8317 41.356 67.5918 37.601 67.2161C35.6078 67.0165 33.6795 69.9565 34.7206 74.8235C34.7765 75.0832 34.8492 75.3483 34.9309 75.614C34.9953 75.4889 35.0482 75.2936 35.0842 75.0075C35.4876 71.806 36.4144 70.37 37.2307 70.3406C39.6628 70.2528 41.5069 74.5819 39.2306 78.4367C38.9204 78.9621 38.915 79.6046 39.153 80.0627C39.3376 80.053 39.5239 80.029 39.7138 79.9743C41.8038 79.3702 42.3502 76.9532 41.7708 73.5276Z" fill="#E99462"/>
<path fill-rule="evenodd" clip-rule="evenodd" d="M78.0686 73.3217C78.722 73.4431 79.2882 73.1822 79.4685 72.3948C79.9326 70.3643 80.4261 68.6283 81.1438 67.4346C78.5381 68.2545 78.4455 70.957 78.0686 73.3217Z" fill="#E99462"/>
<path fill-rule="evenodd" clip-rule="evenodd" d="M81.8215 78.3046C81.8215 78.8931 81.3443 79.3704 80.7558 79.3704C80.1667 79.3704 79.6895 78.8931 79.6895 78.3046C79.6895 77.7162 80.1667 77.2383 80.7558 77.2383C81.3443 77.2383 81.8215 77.7162 81.8215 78.3046Z" fill="#E99462"/>
<path fill-rule="evenodd" clip-rule="evenodd" d="M39.6477 78.3046C39.6477 78.8931 39.1704 79.3704 38.582 79.3704C37.9929 79.3704 37.5156 78.8931 37.5156 78.3046C37.5156 77.7162 37.9929 77.2383 38.582 77.2383C39.1704 77.2383 39.6477 77.7162 39.6477 78.3046Z" fill="#E99462"/>
<path fill-rule="evenodd" clip-rule="evenodd" d="M82.0558 78.0809C82.0558 78.6693 81.5785 79.1466 80.99 79.1466C80.401 79.1466 79.9237 78.6693 79.9237 78.0809C79.9237 77.4924 80.401 77.0151 80.99 77.0151C81.5785 77.0151 82.0558 77.4924 82.0558 78.0809Z" fill="#0297B8"/>
<path fill-rule="evenodd" clip-rule="evenodd" d="M39.8833 78.0809C39.8833 78.6693 39.406 79.1466 38.817 79.1466C38.2285 79.1466 37.7512 78.6693 37.7512 78.0809C37.7512 77.4924 38.2285 77.0151 38.817 77.0151C39.406 77.0151 39.8833 77.4924 39.8833 78.0809Z" fill="#0297B8"/>
<path fill-rule="evenodd" clip-rule="evenodd" d="M48.2153 68.7999C48.1792 69.211 48.5609 69.532 48.9582 69.4226C50.2283 69.0728 52.715 68.4549 54.5352 68.423L56.1425 68.3947C56.5097 68.3881 56.6997 67.9529 56.4544 67.6788L55.3166 66.4081C55.2036 66.2825 55.0274 66.2344 54.8658 66.2861L48.624 68.2878C48.3974 68.3611 48.2363 68.5625 48.2153 68.7999Z" fill="#00547A"/>
<path fill-rule="evenodd" clip-rule="evenodd" d="M71.5917 68.7999C71.6277 69.211 71.246 69.532 70.8487 69.4226C69.5792 69.0728 67.0919 68.4549 65.2718 68.423L63.6645 68.3947C63.2972 68.3881 63.1072 67.9529 63.3525 67.6788L64.4904 66.4081C64.6034 66.2825 64.7795 66.2344 64.9412 66.2861L71.1829 68.2878C71.4101 68.3611 71.5706 68.5625 71.5917 68.7999Z" fill="#00547A"/>
<path fill-rule="evenodd" clip-rule="evenodd" d="M52.874 75.5633C52.2458 75.5633 51.7361 75.0536 51.7361 74.4254V72.443C51.7361 71.8149 52.2458 71.3052 52.874 71.3052C53.5021 71.3052 54.0118 71.8149 54.0118 72.443V74.4254C54.0118 75.0536 53.5021 75.5633 52.874 75.5633Z" fill="#00547A"/>
<path fill-rule="evenodd" clip-rule="evenodd" d="M66.9328 75.5633C67.5609 75.5633 68.0707 75.0536 68.0707 74.4254V72.443C68.0707 71.8149 67.5609 71.3052 66.9328 71.3052C66.3046 71.3052 65.7949 71.8149 65.7949 72.443V74.4254C65.7949 75.0536 66.3046 75.5633 66.9328 75.5633Z" fill="#00547A"/>
<path fill-rule="evenodd" clip-rule="evenodd" d="M59.911 73.9626C59.8004 74.8312 59.6796 75.6979 59.5275 76.5575C59.3754 77.4177 59.2414 78.2808 59.0689 79.1362L58.8146 80.4207L58.6932 81.02C58.6866 81.0807 58.7016 81.139 58.7419 81.1877C58.7779 81.2382 58.829 81.2719 58.8897 81.2833L59.4854 81.3284C59.9206 81.3644 60.3558 81.4143 60.7904 81.4865L60.5025 81.5844C60.7026 81.4624 60.9076 81.3458 61.1204 81.2382C61.2809 81.1577 61.4762 81.222 61.5568 81.3825C61.6151 81.4991 61.5971 81.6343 61.5207 81.7299C61.3728 81.9168 61.2166 82.0936 61.0561 82.2655C61.0104 82.3148 60.9503 82.3424 60.8878 82.3502L60.7681 82.3634C60.3305 82.4133 59.8936 82.4404 59.4566 82.4548L59.129 82.4626L58.9655 82.4662L58.8831 82.4668L58.7443 82.4572C58.371 82.4157 58.0157 82.215 57.7873 81.918C57.5571 81.6223 57.4567 81.2238 57.5132 80.8535C57.5295 80.7453 57.5415 80.7056 57.5529 80.6515L57.5884 80.4916L57.6593 80.1725L57.9556 78.8969C58.1492 78.0464 58.3818 77.2037 58.5958 76.3573C58.811 75.511 59.0568 74.6713 59.3123 73.8339C59.3622 73.6716 59.5341 73.5803 59.6964 73.6296C59.8413 73.674 59.9296 73.8165 59.911 73.9626Z" fill="#E99462"/>
<path fill-rule="evenodd" clip-rule="evenodd" d="M58.8139 86.7897L61.1702 86.955C61.3902 86.9736 61.5008 86.9754 61.6474 86.946C61.7857 86.9183 61.9173 86.8672 62.0339 86.7969C62.0923 86.7609 62.147 86.7206 62.1974 86.6761L62.4096 86.491L62.8556 86.1039C63.1069 85.8857 63.4874 85.9127 63.7056 86.1634C63.9238 86.4146 63.8973 86.7957 63.6461 87.0139C63.6262 87.0307 63.6022 87.0488 63.5812 87.0632L63.0871 87.3866L62.8286 87.5555C62.7198 87.6258 62.605 87.6859 62.4866 87.7358C62.2491 87.835 61.9967 87.8915 61.7442 87.9041C61.499 87.9222 61.2165 87.8687 61.0488 87.8296L58.7364 87.3475C58.5837 87.3157 58.4863 87.166 58.5176 87.0139C58.547 86.8739 58.675 86.7795 58.8139 86.7897Z" fill="#1C417D"/>
<path fill-rule="evenodd" clip-rule="evenodd" d="M52.8904 79.423H49.6757C49.0566 79.423 48.5547 78.9211 48.5547 78.3013C48.5547 77.6822 49.0566 77.1797 49.6757 77.1797H52.8904C53.5095 77.1797 54.012 77.6822 54.012 78.3013C54.012 78.9211 53.5095 79.423 52.8904 79.423Z" fill="#F0909E"/>
<path fill-rule="evenodd" clip-rule="evenodd" d="M70.1306 79.423H66.9166C66.2968 79.423 65.7949 78.9211 65.7949 78.3013C65.7949 77.6822 66.2968 77.1797 66.9166 77.1797H70.1306C70.7497 77.1797 71.2522 77.6822 71.2522 78.3013C71.2522 78.9211 70.7497 79.423 70.1306 79.423Z" fill="#F0909E"/>
<path fill-rule="evenodd" clip-rule="evenodd" d="M79.2487 53.4073C67.6098 52.1245 63.1316 27.1305 46.0744 42.1885C46.0744 42.1885 43.3611 41.8513 40.7193 44.1522C37.144 47.2665 36.3433 55.0116 36.4587 59.7464C36.5441 63.2399 36.9703 67.3929 38.2085 67.3929C40.4794 67.3929 41.2729 71.1702 41.5055 72.7516C41.5632 73.1399 41.901 73.4225 42.2935 73.4074C42.7005 73.3918 43.0245 73.06 43.0305 72.6525L43.1429 64.712C43.1429 64.712 47.1594 60.1161 47.9793 51.7458C48.0141 51.39 48.4956 51.3052 48.6363 51.634C50.5417 56.0803 57.8246 68.9972 77.0944 65.9298L77.19 72.6657C77.1954 73.066 77.5134 73.3918 77.9137 73.4068C78.3086 73.4219 78.647 73.1321 78.6897 72.7396C78.843 71.3385 79.3605 68.247 80.9847 67.5239C81.584 67.257 82.0119 66.7131 82.0119 66.0567V61.5605H81.9615C84.4205 58.2761 85.9984 54.1514 79.2487 53.4073Z" fill="#0297B8"/>
<path fill-rule="evenodd" clip-rule="evenodd" d="M78.9772 60.0935C74.041 61.173 64.0052 62.395 57.1564 56.7123C52.1781 52.5804 49.6126 48.9546 48.3017 46.4589C48.0005 45.8854 47.1265 46.1673 47.2101 46.8087C47.2852 47.3876 47.3856 48.0175 47.5112 48.6781C47.3796 50.5481 46.6348 55.801 42.4212 55.9898C41.1174 56.0487 40.1617 57.2503 40.2873 58.5492C40.5506 61.2782 40.6233 65.1541 39.2276 66.8786C39.0316 65.8856 38.5718 65.0465 37.8276 64.482C37.5036 64.2362 37.1412 64.0619 36.7559 63.9422C37.0155 65.8928 37.4645 67.3913 38.2075 67.3913C38.6301 67.3913 39.0015 67.5224 39.3279 67.7454C40.7543 68.7215 41.3158 71.4631 41.5051 72.7501C41.5622 73.1384 41.9006 73.4209 42.2925 73.4059C42.7001 73.3902 43.0241 73.0584 43.0301 72.6509L43.1425 64.7104C43.1425 64.7104 47.1584 60.1145 47.9789 51.7443C48.0137 51.3884 48.4952 51.3037 48.6359 51.6325C48.7356 51.8657 48.8547 52.1278 48.9851 52.4043C51.3642 57.4456 58.9783 69.06 77.6236 65.8429C78.735 65.0531 79.8783 63.9663 80.7432 62.4798C81.4507 61.2638 80.3513 59.7929 78.9772 60.0935Z" fill="#00547A"/>
</g>
</svg>
